<mxfile host="Electron" modified="2024-02-22T19:41:04.286Z" agent="Mozilla/5.0 (Windows NT 10.0; Win64; x64) AppleWebKit/537.36 (KHTML, like Gecko) draw.io/21.6.8 Chrome/114.0.5735.289 Electron/25.5.0 Safari/537.36" etag="MmqU1WQkBLSq3vMP0T4z" version="21.6.8" type="device">
  <diagram name="Страница — 1" id="ah3wcfIypxKOvY2HF72x">
    <mxGraphModel dx="1050" dy="629" grid="1" gridSize="10" guides="1" tooltips="1" connect="1" arrows="1" fold="1" page="1" pageScale="1" pageWidth="827" pageHeight="1169" math="0" shadow="0">
      <root>
        <mxCell id="0" />
        <mxCell id="1" parent="0" />
        <mxCell id="hxLDlv0-aG_HONULqGOh-1" value="Конвертировать аудио в текст" style="rounded=1;whiteSpace=wrap;html=1;" vertex="1" parent="1">
          <mxGeometry x="240" y="370" width="120" height="60" as="geometry" />
        </mxCell>
        <mxCell id="hxLDlv0-aG_HONULqGOh-2" value="" style="endArrow=classic;html=1;rounded=0;" edge="1" parent="1">
          <mxGeometry width="50" height="50" relative="1" as="geometry">
            <mxPoint x="70" y="400" as="sourcePoint" />
            <mxPoint x="240" y="400" as="targetPoint" />
          </mxGeometry>
        </mxCell>
        <mxCell id="hxLDlv0-aG_HONULqGOh-5" value="аудио" style="text;html=1;strokeColor=none;fillColor=none;align=center;verticalAlign=middle;whiteSpace=wrap;rounded=0;" vertex="1" parent="1">
          <mxGeometry x="130" y="370" width="60" height="30" as="geometry" />
        </mxCell>
        <mxCell id="hxLDlv0-aG_HONULqGOh-6" value="" style="endArrow=classic;html=1;rounded=0;" edge="1" parent="1">
          <mxGeometry width="50" height="50" relative="1" as="geometry">
            <mxPoint x="70" y="520" as="sourcePoint" />
            <mxPoint x="240" y="520" as="targetPoint" />
          </mxGeometry>
        </mxCell>
        <mxCell id="hxLDlv0-aG_HONULqGOh-7" value="изображение" style="text;html=1;strokeColor=none;fillColor=none;align=center;verticalAlign=middle;whiteSpace=wrap;rounded=0;" vertex="1" parent="1">
          <mxGeometry x="115" y="490" width="90" height="30" as="geometry" />
        </mxCell>
        <mxCell id="hxLDlv0-aG_HONULqGOh-8" value="Предобработка изображения" style="rounded=1;whiteSpace=wrap;html=1;" vertex="1" parent="1">
          <mxGeometry x="240" y="490" width="120" height="60" as="geometry" />
        </mxCell>
        <mxCell id="hxLDlv0-aG_HONULqGOh-9" value="" style="endArrow=classic;html=1;rounded=0;exitX=1;exitY=0.5;exitDx=0;exitDy=0;" edge="1" parent="1" source="hxLDlv0-aG_HONULqGOh-1">
          <mxGeometry width="50" height="50" relative="1" as="geometry">
            <mxPoint x="390" y="550" as="sourcePoint" />
            <mxPoint x="400" y="400" as="targetPoint" />
          </mxGeometry>
        </mxCell>
        <mxCell id="hxLDlv0-aG_HONULqGOh-10" value="Предобработка текста" style="rounded=1;whiteSpace=wrap;html=1;" vertex="1" parent="1">
          <mxGeometry x="400" y="370" width="120" height="60" as="geometry" />
        </mxCell>
        <mxCell id="hxLDlv0-aG_HONULqGOh-11" value="Генерация ответа программы" style="rounded=1;whiteSpace=wrap;html=1;" vertex="1" parent="1">
          <mxGeometry x="600" y="480" width="160" height="80" as="geometry" />
        </mxCell>
        <mxCell id="hxLDlv0-aG_HONULqGOh-12" value="" style="endArrow=classic;html=1;rounded=0;entryX=0.5;entryY=0;entryDx=0;entryDy=0;exitX=1;exitY=0.5;exitDx=0;exitDy=0;" edge="1" parent="1" source="hxLDlv0-aG_HONULqGOh-10" target="hxLDlv0-aG_HONULqGOh-11">
          <mxGeometry width="50" height="50" relative="1" as="geometry">
            <mxPoint x="390" y="550" as="sourcePoint" />
            <mxPoint x="440" y="500" as="targetPoint" />
            <Array as="points">
              <mxPoint x="680" y="400" />
            </Array>
          </mxGeometry>
        </mxCell>
        <mxCell id="hxLDlv0-aG_HONULqGOh-13" value="" style="endArrow=classic;html=1;rounded=0;exitX=0.5;exitY=1;exitDx=0;exitDy=0;" edge="1" parent="1" source="hxLDlv0-aG_HONULqGOh-11">
          <mxGeometry width="50" height="50" relative="1" as="geometry">
            <mxPoint x="390" y="550" as="sourcePoint" />
            <mxPoint x="680" y="640" as="targetPoint" />
          </mxGeometry>
        </mxCell>
        <mxCell id="hxLDlv0-aG_HONULqGOh-14" value="Конвертировать текст в аудио" style="rounded=1;whiteSpace=wrap;html=1;" vertex="1" parent="1">
          <mxGeometry x="620" y="640" width="120" height="60" as="geometry" />
        </mxCell>
        <mxCell id="hxLDlv0-aG_HONULqGOh-15" value="" style="endArrow=classic;html=1;rounded=0;exitX=0.5;exitY=1;exitDx=0;exitDy=0;" edge="1" parent="1" source="hxLDlv0-aG_HONULqGOh-14">
          <mxGeometry width="50" height="50" relative="1" as="geometry">
            <mxPoint x="390" y="550" as="sourcePoint" />
            <mxPoint x="680" y="800" as="targetPoint" />
          </mxGeometry>
        </mxCell>
        <mxCell id="hxLDlv0-aG_HONULqGOh-16" value="аудио" style="text;html=1;strokeColor=none;fillColor=none;align=center;verticalAlign=middle;whiteSpace=wrap;rounded=0;" vertex="1" parent="1">
          <mxGeometry x="680" y="730" width="60" height="30" as="geometry" />
        </mxCell>
        <mxCell id="hxLDlv0-aG_HONULqGOh-17" value="Определение эмоционального состояния" style="rounded=1;whiteSpace=wrap;html=1;" vertex="1" parent="1">
          <mxGeometry x="395" y="485" width="130" height="70" as="geometry" />
        </mxCell>
        <mxCell id="hxLDlv0-aG_HONULqGOh-18" value="" style="endArrow=classic;html=1;rounded=0;exitX=0.5;exitY=1;exitDx=0;exitDy=0;entryX=0.5;entryY=0;entryDx=0;entryDy=0;" edge="1" parent="1" source="hxLDlv0-aG_HONULqGOh-10" target="hxLDlv0-aG_HONULqGOh-17">
          <mxGeometry width="50" height="50" relative="1" as="geometry">
            <mxPoint x="440" y="560" as="sourcePoint" />
            <mxPoint x="490" y="510" as="targetPoint" />
          </mxGeometry>
        </mxCell>
        <mxCell id="hxLDlv0-aG_HONULqGOh-19" value="" style="endArrow=classic;html=1;rounded=0;exitX=1;exitY=0.5;exitDx=0;exitDy=0;entryX=0;entryY=0.5;entryDx=0;entryDy=0;" edge="1" parent="1" source="hxLDlv0-aG_HONULqGOh-8" target="hxLDlv0-aG_HONULqGOh-17">
          <mxGeometry width="50" height="50" relative="1" as="geometry">
            <mxPoint x="390" y="550" as="sourcePoint" />
            <mxPoint x="440" y="500" as="targetPoint" />
          </mxGeometry>
        </mxCell>
        <mxCell id="hxLDlv0-aG_HONULqGOh-20" value="" style="endArrow=classic;html=1;rounded=0;entryX=0;entryY=0.5;entryDx=0;entryDy=0;exitX=1;exitY=0.5;exitDx=0;exitDy=0;" edge="1" parent="1" source="hxLDlv0-aG_HONULqGOh-17" target="hxLDlv0-aG_HONULqGOh-11">
          <mxGeometry width="50" height="50" relative="1" as="geometry">
            <mxPoint x="390" y="550" as="sourcePoint" />
            <mxPoint x="440" y="500" as="targetPoint" />
          </mxGeometry>
        </mxCell>
        <mxCell id="hxLDlv0-aG_HONULqGOh-21" value="" style="endArrow=classic;html=1;rounded=0;" edge="1" parent="1" source="hxLDlv0-aG_HONULqGOh-30">
          <mxGeometry width="50" height="50" relative="1" as="geometry">
            <mxPoint x="160" y="600" as="sourcePoint" />
            <mxPoint x="160" y="1080" as="targetPoint" />
          </mxGeometry>
        </mxCell>
        <mxCell id="hxLDlv0-aG_HONULqGOh-22" value="master" style="text;html=1;strokeColor=none;fillColor=none;align=center;verticalAlign=middle;whiteSpace=wrap;rounded=0;" vertex="1" parent="1">
          <mxGeometry x="100" y="640" width="60" height="30" as="geometry" />
        </mxCell>
        <mxCell id="hxLDlv0-aG_HONULqGOh-24" value="feature/title" style="text;html=1;strokeColor=none;fillColor=none;align=center;verticalAlign=middle;whiteSpace=wrap;rounded=0;" vertex="1" parent="1">
          <mxGeometry x="250" y="710" width="60" height="30" as="geometry" />
        </mxCell>
        <mxCell id="hxLDlv0-aG_HONULqGOh-27" value="" style="endArrow=classic;html=1;rounded=0;" edge="1" parent="1" target="hxLDlv0-aG_HONULqGOh-26">
          <mxGeometry width="50" height="50" relative="1" as="geometry">
            <mxPoint x="160" y="680" as="sourcePoint" />
            <mxPoint x="240" y="840" as="targetPoint" />
            <Array as="points" />
          </mxGeometry>
        </mxCell>
        <mxCell id="hxLDlv0-aG_HONULqGOh-26" value="" style="ellipse;whiteSpace=wrap;html=1;aspect=fixed;fillColor=#d5e8d4;strokeColor=#82b366;" vertex="1" parent="1">
          <mxGeometry x="150" y="670" width="20" height="20" as="geometry" />
        </mxCell>
        <mxCell id="hxLDlv0-aG_HONULqGOh-29" value="" style="endArrow=classic;html=1;rounded=0;" edge="1" parent="1" target="hxLDlv0-aG_HONULqGOh-28">
          <mxGeometry width="50" height="50" relative="1" as="geometry">
            <mxPoint x="160" y="600" as="sourcePoint" />
            <mxPoint x="160" y="1080" as="targetPoint" />
          </mxGeometry>
        </mxCell>
        <mxCell id="hxLDlv0-aG_HONULqGOh-28" value="" style="ellipse;whiteSpace=wrap;html=1;aspect=fixed;fillColor=#d5e8d4;strokeColor=#82b366;" vertex="1" parent="1">
          <mxGeometry x="150" y="715" width="20" height="20" as="geometry" />
        </mxCell>
        <mxCell id="hxLDlv0-aG_HONULqGOh-31" value="" style="endArrow=classic;html=1;rounded=0;" edge="1" parent="1" source="hxLDlv0-aG_HONULqGOh-28" target="hxLDlv0-aG_HONULqGOh-30">
          <mxGeometry width="50" height="50" relative="1" as="geometry">
            <mxPoint x="160" y="735" as="sourcePoint" />
            <mxPoint x="160" y="1080" as="targetPoint" />
          </mxGeometry>
        </mxCell>
        <mxCell id="hxLDlv0-aG_HONULqGOh-30" value="" style="ellipse;whiteSpace=wrap;html=1;aspect=fixed;fillColor=#d5e8d4;strokeColor=#82b366;" vertex="1" parent="1">
          <mxGeometry x="150" y="760" width="20" height="20" as="geometry" />
        </mxCell>
        <mxCell id="hxLDlv0-aG_HONULqGOh-33" value="" style="endArrow=classic;html=1;rounded=0;" edge="1" parent="1" source="hxLDlv0-aG_HONULqGOh-26" target="hxLDlv0-aG_HONULqGOh-32">
          <mxGeometry width="50" height="50" relative="1" as="geometry">
            <mxPoint x="170" y="680" as="sourcePoint" />
            <mxPoint x="240" y="840" as="targetPoint" />
            <Array as="points" />
          </mxGeometry>
        </mxCell>
        <mxCell id="hxLDlv0-aG_HONULqGOh-32" value="" style="ellipse;whiteSpace=wrap;html=1;aspect=fixed;fillColor=#d5e8d4;strokeColor=#82b366;" vertex="1" parent="1">
          <mxGeometry x="230" y="670" width="20" height="20" as="geometry" />
        </mxCell>
        <mxCell id="hxLDlv0-aG_HONULqGOh-34" value="" style="ellipse;whiteSpace=wrap;html=1;aspect=fixed;fillColor=#d5e8d4;strokeColor=#82b366;" vertex="1" parent="1">
          <mxGeometry x="230" y="730" width="20" height="20" as="geometry" />
        </mxCell>
        <mxCell id="hxLDlv0-aG_HONULqGOh-36" value="" style="ellipse;whiteSpace=wrap;html=1;aspect=fixed;fillColor=#d5e8d4;strokeColor=#82b366;" vertex="1" parent="1">
          <mxGeometry x="150" y="810" width="20" height="20" as="geometry" />
        </mxCell>
        <mxCell id="hxLDlv0-aG_HONULqGOh-38" value="" style="endArrow=classic;html=1;rounded=0;exitX=0.5;exitY=1;exitDx=0;exitDy=0;entryX=0.5;entryY=0;entryDx=0;entryDy=0;" edge="1" parent="1" source="hxLDlv0-aG_HONULqGOh-32" target="hxLDlv0-aG_HONULqGOh-34">
          <mxGeometry width="50" height="50" relative="1" as="geometry">
            <mxPoint x="390" y="800" as="sourcePoint" />
            <mxPoint x="440" y="750" as="targetPoint" />
          </mxGeometry>
        </mxCell>
        <mxCell id="hxLDlv0-aG_HONULqGOh-39" value="" style="endArrow=classic;html=1;rounded=0;exitX=0.5;exitY=1;exitDx=0;exitDy=0;entryX=1;entryY=0.5;entryDx=0;entryDy=0;" edge="1" parent="1" source="hxLDlv0-aG_HONULqGOh-34" target="hxLDlv0-aG_HONULqGOh-36">
          <mxGeometry width="50" height="50" relative="1" as="geometry">
            <mxPoint x="390" y="800" as="sourcePoint" />
            <mxPoint x="440" y="750" as="targetPoint" />
            <Array as="points">
              <mxPoint x="240" y="820" />
            </Array>
          </mxGeometry>
        </mxCell>
      </root>
    </mxGraphModel>
  </diagram>
</mxfile>
